<?xml version="1.0" encoding="UTF-8" standalone="no"?>
<svg
   viewBox="0 0 512 512"
   version="1.1"
   id="svg1"
   sodipodi:docname="heart-regular-red.svg"
   inkscape:version="1.4 (86a8ad7, 2024-10-11)"
   xmlns:inkscape="http://www.inkscape.org/namespaces/inkscape"
   xmlns:sodipodi="http://sodipodi.sourceforge.net/DTD/sodipodi-0.dtd"
   xmlns="http://www.w3.org/2000/svg"
   xmlns:svg="http://www.w3.org/2000/svg">
  <defs
     id="defs1" />
  <sodipodi:namedview
     id="namedview1"
     pagecolor="#ffffff"
     bordercolor="#000000"
     borderopacity="0.25"
     inkscape:showpageshadow="2"
     inkscape:pageopacity="0.0"
     inkscape:pagecheckerboard="0"
     inkscape:deskcolor="#d1d1d1"
     inkscape:zoom="5.6568543"
     inkscape:cx="236.26205"
     inkscape:cy="378.92085"
     inkscape:window-width="1920"
     inkscape:window-height="1017"
     inkscape:window-x="-8"
     inkscape:window-y="-8"
     inkscape:window-maximized="1"
     inkscape:current-layer="svg1" />
  <!--!Font Awesome Free 6.7.2 by @fontawesome - https://fontawesome.com License - https://fontawesome.com/license/free Copyright 2025 Fonticons, Inc.-->
  <path
     d="M225.8 468.2l-2.5-2.3L48.1 303.2C17.4 274.7 0 234.7 0 192.8l0-3.3c0-70.4 50-130.8 119.2-144C158.6 37.9 198.9 47 231 69.6c9 6.4 17.4 13.8 25 22.3c4.2-4.8 8.7-9.2 13.5-13.3c3.7-3.2 7.5-6.2 11.5-9c0 0 0 0 0 0C313.1 47 353.4 37.9 392.8 45.4C462 58.6 512 119.1 512 189.5l0 3.3c0 41.9-17.4 81.9-48.1 110.4L288.7 465.9l-2.5 2.3c-8.2 7.6-19 11.9-30.2 11.9s-22-4.2-30.2-11.9zM239.1 145c-.4-.3-.7-.7-1-1.1l-17.8-20-.1-.1s0 0 0 0c-23.1-25.9-58-37.7-92-31.2C81.6 101.5 48 142.1 48 189.5l0 3.3c0 28.5 11.9 55.8 32.8 75.2L256 430.7 431.2 268c20.9-19.4 32.8-46.7 32.8-75.2l0-3.3c0-47.3-33.6-88-80.1-96.9c-34-6.5-69 5.4-92 31.2c0 0 0 0-.1 .1s0 0-.1 .1l-17.8 20c-.3 .4-.7 .7-1 1.1c-4.5 4.5-10.6 7-16.9 7s-12.4-2.5-16.9-7z"
     id="path1" />
  <path
     style="fill:#ce3b60;fill-opacity:1;stroke:#f96425;stroke-width:1.13386"
     d="M 164.82833,345.06121 C 106.59024,290.91251 72.328877,258.34827 69.342613,254.30535 44.006437,220.00425 41.5551,174.40462 63.107876,138.32714 68.767512,128.8534 82.083866,114.75011 91,108.78671 c 18.41644,-12.317504 38.86213,-18.096817 60.27116,-17.03664 13.76861,0.681823 25.19923,3.623308 37.72884,9.70891 13.12679,6.37565 21.08227,12.55652 33.10079,25.71711 C 243.27737,150.36498 246.13536,152.5 256,152.5 c 9.84926,0 13.33971,-2.61465 34.27525,-25.67515 11.30454,-12.45195 19.66039,-18.91738 32.72475,-25.32114 15.63383,-7.66324 23.81359,-9.450404 43,-9.394904 14.44406,0.04178 16.87521,0.310032 25,2.758472 35.5387,10.709742 59.8692,35.641502 69.73403,71.457292 1.76719,6.41608 2.11467,10.46472 2.11779,24.67543 0.003,15.27186 -0.26722,18.0093 -2.66175,26.92862 -3.33735,12.43121 -9.86111,25.95354 -17.38767,36.04081 -4.35628,5.83838 -28.08682,28.49415 -95.21597,90.90354 -49.17747,45.71987 -89.97972,83.46716 -90.67167,83.88288 -0.8345,0.50137 -31.83936,-27.67804 -92.08643,-83.69464 z"
     id="path8" />
</svg>
