<svg width="225" height="211" viewBox="0 0 225 211" fill="none" xmlns="http://www.w3.org/2000/svg">
<g clip-path="url(#clip0_1634_270)">
<path d="M113.827 197.391C148.818 197.391 177.184 169.025 177.184 134.034C177.184 99.0432 148.818 70.6774 113.827 70.6774C78.8357 70.6774 50.4698 99.0432 50.4698 134.034C50.4698 169.025 78.8357 197.391 113.827 197.391Z" stroke="white" stroke-width="26.8346"/>
<path d="M13.4163 86.6602L36.9793 106.39L49.8319 88.3513L21.9846 75.3857L13.4163 86.6602Z" stroke="white" stroke-width="19.5385"/>
<path d="M211.461 86.9567L188 106.968L175.203 88.6719L202.93 75.5215L211.461 86.9567Z" stroke="white" stroke-width="19.6345"/>
<path d="M114.581 79.2631C129.233 79.2631 141.11 67.386 141.11 52.7349C141.11 38.0837 129.233 26.2067 114.581 26.2067C99.9303 26.2067 88.0532 38.0837 88.0532 52.7349C88.0532 67.386 99.9303 79.2631 114.581 79.2631Z" stroke="white" stroke-width="52.4134"/>
<path d="M107.899 98.5983L120.858 98.8383L114.378 114.678L107.899 98.5983Z" stroke="white" stroke-width="8.29776"/>
</g>
<defs>
<clipPath id="clip0_1634_270">
<rect width="224.829" height="210.809" fill="white"/>
</clipPath>
</defs>
</svg>
